<svg width="128" height="128" viewBox="0 0 128 128" fill="none" xmlns="http://www.w3.org/2000/svg">
<g filter="url(#filter0_d_37_79)">
<rect x="4" y="21" width="60" height="90" rx="5" fill="#6237A0"/>
<rect x="4" y="21" width="60" height="90" rx="5" fill="black" fill-opacity="0.4"/>
<rect x="4.5" y="21.5" width="59" height="89" rx="4.5" stroke="black"/>
</g>
<g filter="url(#filter1_d_37_79)">
<path d="M34 24.0667C34 20.7161 36.6767 18 39.9787 18H87.0213C90.3233 18 93 20.7161 93 24.0667V102.933C93 106.284 90.3233 109 87.0213 109H39.9787C36.6767 109 34 106.284 34 102.933V24.0667Z" fill="#6237A0"/>
<path d="M34 24.0667C34 20.7161 36.6767 18 39.9787 18H87.0213C90.3233 18 93 20.7161 93 24.0667V102.933C93 106.284 90.3233 109 87.0213 109H39.9787C36.6767 109 34 106.284 34 102.933V24.0667Z" fill="black" fill-opacity="0.2"/>
<path d="M34.5 24.0667C34.5 20.9854 36.9597 18.5 39.9787 18.5H87.0213C90.0403 18.5 92.5 20.9854 92.5 24.0667V102.933C92.5 106.015 90.0403 108.5 87.0213 108.5H39.9787C36.9597 108.5 34.5 106.015 34.5 102.933V24.0667Z" stroke="black"/>
</g>
<g filter="url(#filter2_d_37_79)">
<rect x="64" y="16" width="60" height="90" rx="5" fill="#6237A0"/>
<rect x="64.5" y="16.5" width="59" height="89" rx="4.5" stroke="black"/>
</g>
<defs>
<filter id="filter0_d_37_79" x="0" y="21" width="68" height="98" filterUnits="userSpaceOnUse" color-interpolation-filters="sRGB">
<feFlood flood-opacity="0" result="BackgroundImageFix"/>
<feColorMatrix in="SourceAlpha" type="matrix" values="0 0 0 0 0 0 0 0 0 0 0 0 0 0 0 0 0 0 127 0" result="hardAlpha"/>
<feOffset dy="4"/>
<feGaussianBlur stdDeviation="2"/>
<feComposite in2="hardAlpha" operator="out"/>
<feColorMatrix type="matrix" values="0 0 0 0 0 0 0 0 0 0 0 0 0 0 0 0 0 0 0.25 0"/>
<feBlend mode="normal" in2="BackgroundImageFix" result="effect1_dropShadow_37_79"/>
<feBlend mode="normal" in="SourceGraphic" in2="effect1_dropShadow_37_79" result="shape"/>
</filter>
<filter id="filter1_d_37_79" x="30" y="18" width="67" height="99" filterUnits="userSpaceOnUse" color-interpolation-filters="sRGB">
<feFlood flood-opacity="0" result="BackgroundImageFix"/>
<feColorMatrix in="SourceAlpha" type="matrix" values="0 0 0 0 0 0 0 0 0 0 0 0 0 0 0 0 0 0 127 0" result="hardAlpha"/>
<feOffset dy="4"/>
<feGaussianBlur stdDeviation="2"/>
<feComposite in2="hardAlpha" operator="out"/>
<feColorMatrix type="matrix" values="0 0 0 0 0 0 0 0 0 0 0 0 0 0 0 0 0 0 0.25 0"/>
<feBlend mode="normal" in2="BackgroundImageFix" result="effect1_dropShadow_37_79"/>
<feBlend mode="normal" in="SourceGraphic" in2="effect1_dropShadow_37_79" result="shape"/>
</filter>
<filter id="filter2_d_37_79" x="60" y="16" width="68" height="98" filterUnits="userSpaceOnUse" color-interpolation-filters="sRGB">
<feFlood flood-opacity="0" result="BackgroundImageFix"/>
<feColorMatrix in="SourceAlpha" type="matrix" values="0 0 0 0 0 0 0 0 0 0 0 0 0 0 0 0 0 0 127 0" result="hardAlpha"/>
<feOffset dy="4"/>
<feGaussianBlur stdDeviation="2"/>
<feComposite in2="hardAlpha" operator="out"/>
<feColorMatrix type="matrix" values="0 0 0 0 0 0 0 0 0 0 0 0 0 0 0 0 0 0 0.25 0"/>
<feBlend mode="normal" in2="BackgroundImageFix" result="effect1_dropShadow_37_79"/>
<feBlend mode="normal" in="SourceGraphic" in2="effect1_dropShadow_37_79" result="shape"/>
</filter>
</defs>
</svg>
